<svg xmlns="http://www.w3.org/2000/svg" xmlns:xlink="http://www.w3.org/1999/xlink" viewBox="0 0 515.5963 171.5596"><defs><style>.a{fill:#fff;}.b{fill:none;stroke:#0067b1;stroke-miterlimit:3.864;stroke-width:1.5px;}.c{fill:#0067b1;}.d{fill:url(#a);}.e{fill:url(#b);}.f{fill:url(#c);}.g{fill:#231f20;}</style><linearGradient id="a" x1="229.9947" y1="1035.7042" x2="262.8062" y2="1058.618" gradientTransform="translate(-170.7277 1161.7629) rotate(-155.034)" gradientUnits="userSpaceOnUse"><stop offset="0.0307" stop-color="#fff"/><stop offset="0.2515" stop-color="#fff"/><stop offset="0.3369" stop-color="#fbfdfe"/><stop offset="0.4244" stop-color="#eff5fa"/><stop offset="0.5129" stop-color="#dae9f4"/><stop offset="0.6021" stop-color="#bdd8eb"/><stop offset="0.6919" stop-color="#98c2e0"/><stop offset="0.7821" stop-color="#6ba7d2"/><stop offset="0.871" stop-color="#3687c2"/><stop offset="0.9509" stop-color="#0067b1"/></linearGradient><linearGradient id="b" x1="-4689.8338" y1="-14980.3388" x2="-4657.0178" y2="-14957.4219" gradientTransform="matrix(0.8187, -0.5741, 0.5741, 0.8187, 12489.607, 9673.761)" xlink:href="#a"/><linearGradient id="c" x1="-16239.5626" y1="-2662.9972" x2="-16206.7516" y2="-2640.0837" gradientTransform="matrix(0.0878, 0.9961, -0.9961, 0.0878, -1152.1842, 16516.7729)" xlink:href="#a"/></defs><title>bwh-logo</title><path class="a" d="M60.7,152.4381C20.0214,131.0367,19.7094,102.0167,19.7094,56.771h81.9777c0,45.2733-.1376,74.2657-40.9868,95.6672"/><path class="b" d="M60.7,152.4381C20.0214,131.0367,19.7094,102.0167,19.7094,56.771h81.9777C101.6871,102.0442,101.55,131.0367,60.7,152.4381Z"/><path class="c" d="M98.91,59.7655H22.3831v3.92c-.03,16.9727-.0509,33.0164,4.7143,47.7211a59.6259,59.6259,0,0,0,11.3661,20.6486c5.6923,6.69,12.9377,12.24,22.1572,16.9774l.11.0579.11-.0579c9.1783-4.7663,16.3833-10.3342,22.0454-17.0272a59.75,59.75,0,0,0,11.3147-20.6864C98.9495,96.5535,98.93,80.3572,98.91,63.1934Z"/><path class="a" d="M44.5065,72.2366a7.6235,7.6235,0,0,0-2.0351-.5537,7.1588,7.1588,0,0,0,1.38-.5266,4.0521,4.0521,0,0,0,1.4693-1.3811,3.5544,3.5544,0,0,0,.5724-1.9394,3.0441,3.0441,0,0,0-2.1027-2.9724,8.86,8.86,0,0,0-2.9866-.4006c-.3466,0-1.0773.0272-2.16.0792-.4359.014-1.0315.0257-1.7933.0257-.7685,0-1.4094-.0056-1.9289-.0157L33.35,64.5c-.1854-.01-.5674-.0127-.7377-.0127v1.3384a6.7039,6.7039,0,0,1,1.813.2384.2106.2106,0,0,1,.0827.1274,11.8484,11.8484,0,0,1,.1173,2.142c.0388,1.7117.06,2.9089.06,3.6723,0,2.8948-.0166,4.94-.0469,6.0738-.0151.4913-.0408.9216-.0811,1.2814a8.0265,8.0265,0,0,1-1.0188.69v.8682c1.0209-.0544,2.0216-.0947,2.6283-.0947l3.8421.0816h.0035a7.8278,7.8278,0,0,0,2.6494-.3915,6.5776,6.5776,0,0,0,1.883-1.0728,5.5805,5.5805,0,0,0,1.3485-1.635,4.4345,4.4345,0,0,0,.5305-2.15,4.1051,4.1051,0,0,0-.526-2.0523A3.3,3.3,0,0,0,44.5065,72.2366ZM38.3007,67.875c.01-.6641.03-1.2335.065-1.7273a10.62,10.62,0,0,1,1.1665-.0584,3.6117,3.6117,0,0,1,1.4577.2242,1.671,1.671,0,0,1,.7507.7422,2.6848,2.6848,0,0,1,.2948,1.3041,3.33,3.33,0,0,1-.2625,1.355,2.1681,2.1681,0,0,1-.6349.8626,2.3821,2.3821,0,0,1-.9907.4081,7.7756,7.7756,0,0,1-1.4013.122l-.4676-.0131Zm3.3942,10.56a2.8086,2.8086,0,0,1-2.15.87,9.7835,9.7835,0,0,1-1.234-.0549l-.0322-6.5263c.2166-.0176.4475-.0272.6807-.0272a5.37,5.37,0,0,1,2.008.3024,2.3422,2.3422,0,0,1,1.12.9937,3.7285,3.7285,0,0,1,.4293,1.9061A3.598,3.598,0,0,1,41.6949,78.4353Z"/><path class="a" d="M87.3265,67.7359a6.6585,6.6585,0,0,1,.1194-1.5409.3283.3283,0,0,1,.0912-.1451.8094.8094,0,0,1,.27-.0917c.0872-.014,1.4875-.068,1.4875-.068V64.4768s-2.79.0907-4.1484.0907c-1.2285,0-3.505-.0907-3.505-.0907v1.4114s1.5041.0761,1.5832.0967a.608.608,0,0,1,.1844.0711.2723.2723,0,0,1,.0554.1173c.0257.1124.0725.6757.133,1.68.0131.3391.0217,1.1246.0217,2.2623V71.248c-.6173.0433-1.9324.0675-3.9056.0675-1.567,0-2.6589-.0241-3.2642-.0675V70.1157c0-1.44.0328-2.5657.1054-3.3458a2.4668,2.4668,0,0,1,.0932-.69.3422.3422,0,0,1,.2015-.0947c.12-.0267.5936-.06,1.4034-.0947l.19-.002V64.4768s-2.2862.0907-3.51.0907c-1.359,0-2.6923-.0292-3.953-.0807l-3.5216.0807c-.276,0-1.2692-.0343-2.6846-.0907v1.3459c.8682.0675,1.5338.1215,1.5927.1355a.4335.4335,0,0,1,.2237.1245.418.418,0,0,1,.062.2489,1.8035,1.8035,0,0,1-.0292.31c-.0721.4445-.3618,1.6578-.8738,3.7192L64.57,74.9122l-1.1524-2.8344c-.2484-.5966-.9931-2.4781-2.1516-5.45-.2625-.67-.588-1.5394-.8792-2.338H59.0547c-.1613.4107-.3608.9231-.5125,1.2929l-1.82,4.3426-1.4431,3.35c-.3114.7528-.5472,1.3217-.713,1.7168l-.8869-3.9962c-.1194-.571-.316-1.5737-.6193-3.1634-.1416-.7639-.2207-1.2048-.2313-1.309a1.94,1.94,0,0,1-.0136-.2706.3214.3214,0,0,1,.0741-.25.6118.6118,0,0,1,.3405-.122c.0535-.0075.5609-.0292,1.291-.0484V64.4809l-3.9413.0867-3.4068-.0867v1.3524a5.0248,5.0248,0,0,1,1.3091.1442.5674.5674,0,0,1,.2468.2928,15.218,15.218,0,0,1,.6052,2.3758l2.6993,12.3427h1.9576L55.2639,77.82c1.7717-4.1893,2.8469-6.7087,3.3236-7.7885l2.9493,7.5023L62.82,80.9886h2.066c.0785-.5261.5447-2.4942,1.3751-5.6526.82-3.1064,1.4436-5.3905,1.8669-6.7918a18.3052,18.3052,0,0,1,.7628-2.31.779.779,0,0,1,.2363-.2641,2.5587,2.5587,0,0,1,.8063-.1113c.0528-.0065,2.2513.0852,2.3329.1054a.71.71,0,0,1,.2736.0993.3233.3233,0,0,1,.0862.1507,6.4712,6.4712,0,0,1,.1155,1.56l.0413,2.25v5.3507l-.0413,2.2841a6.3817,6.3817,0,0,1-.1155,1.5373.263.263,0,0,1-.0922.14.6838.6838,0,0,1-.27.0988c-.0872.0141-1.492.07-1.492.07v1.4123c1.2617-.0528,2.8015-.0932,4.1605-.0932,1.2234,0,2.5456.04,3.51.0947V79.5051c-1.0134-.0374-1.5061-.0751-1.5857-.0953a.4038.4038,0,0,1-.18-.073.2415.2415,0,0,1-.06-.1059c-.0171-.0851-.0554-.4469-.1345-1.697-.0192-.323-.0328-1.0869-.0328-2.2644V73.0529c.1673-.0212.3347-.0317.5084-.0367.585-.0141,1.7681-.0243,3.5267-.0243,1.5908,0,2.6449.0243,3.1347.061V75.27c0,1.4875-.03,2.5839-.09,3.3538a2.6519,2.6519,0,0,1-.0942.6868.33.33,0,0,1-.2011.0958c-.125.03-1.5927.0993-1.5927.0993V80.919s2.2765-.0947,3.505-.0947c1.3585,0,4.1484.0932,4.1484.0932V79.5051s-1.4134-.0554-1.5-.07a.6975.6975,0,0,1-.2575-.0912.5892.5892,0,0,1-.1048-.1592,7.8286,7.8286,0,0,1-.1058-1.5621l-.0419-2.2417v-5.35Z"/><path class="d" d="M41.2066,128.0577a54.6411,54.6411,0,0,0,3.637,4.2986A35.1427,35.1427,0,0,0,60.7764,124.5a34.9209,34.9209,0,0,1-9.2638-39.7538c.04-.0811.451-.9478.4908-1.0526-7.533,2.1716-12.1325,4.4674-17.3749,10.6011C30.3913,105.4777,34.2838,118.9163,41.2066,128.0577Z"/><path class="e" d="M56.1623,86.1256a49.64,49.64,0,0,0-5.5442,1.0138,34.9042,34.9042,0,0,0-1.159,17.7075A34.9194,34.9194,0,0,1,88.503,116.7042c.0751.0842.6142.8627.6768.9685,1.8855-7.6091,2.2024-12.7477-.4923-20.3473C81.1217,88.0635,67.544,84.7011,56.1623,86.1256Z"/><path class="f" d="M84.9975,120.0409a53.4181,53.4181,0,0,0,1.8956-5.2852,35.04,35.04,0,0,0-14.7612-9.877,34.9077,34.9077,0,0,1-29.784,27.89c-.1129.0206-1.0622.09-1.1816.1008,5.6576,5.4459,9.9451,8.2752,17.8681,9.7551C70.849,140.7011,80.5367,130.6048,84.9975,120.0409Z"/><path class="g" d="M143.2272,116.35l-4.7521-12.4334-6.6351,16.219c-.4887,1.2452-.9861,2.4862-1.3675,3.7716H128.57c-.2625-1.3544-.5664-2.49-.8708-3.7716l-4.5329-18.8819c-.3779-1.5877-1.105-1.7646-1.9011-1.8387l-1.0658-.11V98.2058c1.5993.04,3.1594.11,4.7975.11,1.6315,0,3.1992-.07,4.7944-.11v1.0984l-1.5953.11c-1,.0741-1.7515.251-1.2642,2.4206l3.7705,16.36h.079l4.6791-11.4472c1.1781-2.8953,2.3965-5.8248,3.43-8.8326h1.2159a42.6537,42.6537,0,0,0,1.562,4.6221l5.8924,15.9122h.0751l4.99-17.8254c.2278-.8783-.3078-1.0949-1.751-1.2093l-1.5222-.11V98.2058c1.33.04,2.6232.11,3.9948.11,1.37,0,2.6666-.07,3.9943-.11v1.0984l-1.2134.11a1.45,1.45,0,0,0-1.4446,1.0587L148.86,120.2078c-.3094,1.0647-.7236,2.1954-1.0259,3.6989h-1.9083c-.8354-2.8993-1.7514-5.0166-2.6982-7.5572M169.9,99.12c-6.6145,0-9.6257,4.473-9.6257,10.4893,0,6.416,3.1236,13.163,10.6577,13.163,6.3585,0,9.4392-4.7642,9.4392-11.5158,0-7.26-3.3906-12.1365-10.4711-12.1365M156.2047,110.966c0-7.5557,5.4786-13.3862,14.3082-13.3862,8.1467,0,13.9243,4.4014,13.9243,12.5361,0,7.8917-6.3892,14.1979-14.7215,14.1979C161.9892,124.3139,156.2047,119.1793,156.2047,110.966Zm59.8023-8.2451a6.2116,6.2116,0,0,1,.3436-2.7552c.2222-.3669.6777-.4772,1.5993-.5513l1.5967-.11V98.2058c-1.11.04-2.3274.11-3.54.11-1.2235,0-2.4021-.07-3.6249-.11l-9.9633,20.3875L192.3749,98.2058c-1.1836.04-2.4056.11-3.626.11-1.2113,0-2.43-.07-3.6134-.11v1.0984l1.678.11c.9126.0741,1.3681.1844,1.5983.5513a6.3617,6.3617,0,0,1,.3371,2.7552v16.4584a6.3482,6.3482,0,0,1-.3371,2.7507c-.23.3693-.6857.4731-1.5983.5492l-1.678.1078v1.099c1.5278-.0343,3.046-.1024,4.4221-.1024,1.52,0,2.89.0681,4.5672.1024v-1.099l-1.6769-.1078c-.9192-.0761-1.3706-.18-1.5993-.5492a6.19,6.19,0,0,1-.3437-2.7507V102.5371h.0741l10.5422,21.5189h.77c.6778-1.5449,1.3238-3.1549,2.0464-4.66l6.7792-13.8557c.4922-.99,1.0253-2.0231,1.5943-3.0032h.0711v16.6423a6.2764,6.2764,0,0,1-.3371,2.7507c-.23.3693-.6843.4731-1.5978.5492l-1.2965.1078v1.099c1.4467-.0636,3.2314-.1024,5.1064-.1024,1.75,0,3.5412.0388,5.5169.1024v-1.099l-1.824-.1078c-.9216-.0357-1.3771-.18-1.5993-.5492a6.1984,6.1984,0,0,1-.3436-2.7507V102.721m9.9466,16.4584a6.3044,6.3044,0,0,1-.3381,2.7507c-.2253.3693-.6843.4731-1.6059.5492l-1.367.1078v1.099c1.367-.0343,2.6328-.1024,4.0759-.1024,2.36,0,5.3639.0681,8.297.1024,2.8146.0408,5.8259-.0636,7.5018-.1024a31.1539,31.1539,0,0,1,.6022-6.0183h-1.3378c-.2585,2.205-.7523,3.8149-1.3262,4.1077-.6838.3673-4.5581.4737-7.6847.4737a13.6953,13.6953,0,0,1-3.1986-.2887V111.5838c1.177-.1047,2.5914-.1047,4.416-.1047,2.3233,0,3.6209.143,4.035.4414.1884.1129.2686.4414.3013.914l.19,2.1637h1.1478c-.0423-1.3131-.1209-2.7089-.1209-4.0663,0-1.3595.0786-2.7527.1209-4.2568h-1.1478l-.19,1.9071c-.0327.4792-.1129.8037-.3013.95-.4141.2611-1.7117.4057-4.035.4057-1.8246,0-3.1982-.03-4.416-.11V100.04a13.7846,13.7846,0,0,1,3.1986-.2948c2.4352,0,5.4409.04,7.4574.77.3024.1084.34.5114.34.9866v2.3838h1.3293a23.7226,23.7226,0,0,1,.62-5.57c-1.488-.07-3.1986-.11-4.9083-.11-2.1728,0-5.6757.11-8.9878.11-2.1662,0-4.341-.07-6.4346-.11v1.0984l1.823.11c.9216.04,1.3806.1844,1.6059.5513a6.3178,6.3178,0,0,1,.3381,2.7552v16.4584m23.0637,0a6.31,6.31,0,0,1-.3416,2.7507c-.2237.3693-.6752.4731-1.5913.5492l-1.6875.1078v1.099c1.5364-.0343,3.0551-.1024,4.4332-.1024,1.5192,0,2.89.0681,4.5576.1024v-1.099l-1.6678-.1078c-.9226-.0761-1.3705-.18-1.6093-.5492a6.2848,6.2848,0,0,1-.34-2.7507V102.2721h.0755L268.78,123.7268l3.4229.5871c-.0413-.4415-.1129-.9141-.1129-1.353v-20.24a6.2373,6.2373,0,0,1,.34-2.7552c.2323-.3669.6869-.4772,1.6009-.5513l1.6729-.11V98.2058c-1.6729.04-3.0415.11-4.5692.11-1.3635,0-2.8878-.07-4.4181-.11v1.0984l1.6809.11c.9155.0741,1.3736.1844,1.6009.5513a6.34,6.34,0,0,1,.3416,2.7552v17.1255h-.1208L252.0331,98.2058c-.6838.04-1.3771.11-2.0588.11-1.3705,0-2.89-.07-4.5773-.11v1.0984l1.6875.11c.9161.0741,1.3675.1844,1.5913.5513a6.3238,6.3238,0,0,1,.3416,2.7552v16.4584m30.233-12.8329a31.775,31.775,0,0,0,4.9109-8.2858l-.4959-.4807c-1.2244.3688-2.4428.8077-3.7,1.0989A16.7971,16.7971,0,0,1,277,106.86l.571.3643,1.6794-.8778m22.4717-2.0478a24.4841,24.4841,0,0,1,.54-5.1788,18.4463,18.4463,0,0,0-6.8931-1.54c-4.5641,0-9.741,2.6066-9.741,8.2929,0,3.81,2.36,5.6063,8.3311,6.27,3.8789.4354,6.7,1.432,6.7,4.9108,0,3.6335-3.3911,5.6481-6.8124,5.6481-3.0072,0-6.0144-1.3932-6.1988-2.9312l-.3109-2.464h-1.2148a31.9783,31.9783,0,0,1-.2636,5.61,16.7743,16.7743,0,0,0,6.5067,1.3973c5.6727,0,11.4925-3.0057,11.4925-9.275,0-4.1788-3.3911-5.4667-8.7534-6.0139-4.7586-.5214-6.2794-2.0594-6.2794-4.55,0-3.6309,2.97-5.3557,5.6284-5.3557a8.7609,8.7609,0,0,1,4.1521.88c1.4078.8445,1.56,1.2129,1.6729,2.2015l.2337,2.0971h1.21m-173.9081-42.54v8.9122c.68.0307,1.56.0711,2.7019.0711,3.3131,0,6.2411-1.3222,6.2411-4.9517,0-3.518-2.5533-4.3278-5.7514-4.3278a13.6218,13.6218,0,0,0-3.1916.2963m0,21.8891a13.1987,13.1987,0,0,0,3.1916.2959c4.2321,0,6.89-2.3491,6.89-6.2709,0-4.0346-2.658-5.6481-7.5351-5.6481-1.0657,0-1.8669.0393-2.5466.0751ZM124.195,64.51a6.2726,6.2726,0,0,0-.3442-2.7512c-.2307-.3688-.6848-.48-1.5983-.5537l-1.3731-.11V59.9953c2.0982.0393,4.2689.11,5.4853.11,2.205,0,4.3374-.0706,7.345-.11,3.5413-.0725,6.8115,1.1776,6.8115,5.0625,0,3.3413-3.2313,5.4989-6.3585,5.9745v.0792c3.8849.11,7.6554,1.6507,7.6554,5.9362,0,3.5992-2.8171,8.6537-11.1484,8.4365-1.4093-.0343-2.7839-.1129-4.1525-.1129-1.4114,0-2.7819.0786-4.149.1129v-.8455l.99-.3658c.6767-.2555.8364-1.3953.8364-2.3829ZM176.42,61.7584c.23-.3688.6838-.513,1.5983-.5537l1.8316-.11V59.9953c-1.9762.0711-3.7655.11-5.5169.11-1.869,0-3.6578-.0388-5.6405-.11v1.0994l1.8311.11c.9146.0408,1.3691.1849,1.6.5537a6.3324,6.3324,0,0,1,.34,2.7512V80.975a6.3773,6.3773,0,0,1-.34,2.7527c-.2313.3668-.6857.5064-1.6.5452l-2.8554.072a2.73,2.73,0,0,1-1.9873-.914L157.0487,72.57c3.69-.6959,7.4147-3.0787,7.4147-7.073,0-2.6389-1.59-5.6143-7.6792-5.502-2.2121.0393-4.4165.11-6.6673.11-2.2439,0-4.4554-.0706-6.4694-.11v1.0994l1.5605.11c.9176.0741,1.3705.1849,1.6.5537a6.211,6.211,0,0,1,.3406,2.7512V80.975a6.2545,6.2545,0,0,1-.3406,2.7527c-.2293.3668-.6822.5064-1.6.5452l-1.8241.1113v1.1c1.9747-.0736,3.7646-.1129,5.6329-.1129,1.7515,0,3.5408.0393,5.517.1129v-1.1l-1.8245-.1113c-.9131-.0388-1.3747-.1784-1.6009-.5452a6.2728,6.2728,0,0,1-.34-2.7527V61.838a14.9869,14.9869,0,0,1,3.8834-.4485c2.9643,0,6.0087,1.0989,6.0087,5.065,0,2.7094-2.277,4.6962-4.9486,5.1376a14.9166,14.9166,0,0,1-3.3442.137l-.2307.4469c.6459.77,1.3705,1.4618,1.9823,2.271l6.9964,9.0548c.4988.6586,1.0712,1.2829,1.5651,1.9823h2.925c2.33,0,7.6363-.1129,8.7278-.1129,1.7514,0,3.5407.0393,5.5169.1129v-1.1l-1.8316-.1113c-.9145-.0388-1.368-.1784-1.5983-.5452a6.4825,6.4825,0,0,1-.3356-2.7527V64.51A6.4367,6.4367,0,0,1,176.42,61.7584Zm27.2913,20.0208a3.2647,3.2647,0,0,1-.1895,1.499c-.2248.6652-2.3955,1.2849-5.3246,1.2849-7.8389,0-12.2548-5.2388-12.2548-12.5386,0-6.5272,3.7655-11.108,10.9967-11.108a16.9529,16.9529,0,0,1,5.3255.6591c1.79.6237,3.1629,1.21,3.1629,2.934v1.945H206.61a22.1435,22.1435,0,0,1,.7574-5.5724,30.9782,30.9782,0,0,0-9.4358-1.5056c-9.1706,0-16.0622,5.2046-16.0622,13.2733,0,9.2009,6.8512,13.4531,15.3372,13.4531a44.05,44.05,0,0,0,10.0066-1.8689V78.0776c0-1.0642,0-1.2154.4212-1.361l1.101-.3613-.1466-.9211c-1.5661.0393-3.1261.0721-4.6861.0721-1.5187,0-3.0833-.0328-4.6443-.0721v1.0985l3.1649.258c.9865.0715,1.2884.4414,1.2884,1.2869v3.7015m96.5973,2.6051v1.1c-1.98-.0736-3.7711-.1129-5.5155-.1129-1.8674,0-3.6521.0393-5.0923.1129v-1.1l1.2819-.1113c.9161-.0731,1.3716-.1784,1.6024-.5452a6.2106,6.2106,0,0,0,.3405-2.7527V64.3262h-.0685c-.5824.9871-1.11,2.013-1.6063,3.0067l-6.7762,13.86c-.7246,1.5066-1.3721,3.12-2.0523,4.6549h-.7588L271.1212,64.3262h-.0781V80.975a6.3073,6.3073,0,0,0,.3431,2.7527c.2242.3668.6883.4721,1.5978.5452l1.6715.1113v1.1c-1.6715-.0343-3.045-.1129-4.5657-.1129-1.3771,0-1.7465.0786-3.2692.1129-1.6643-.0343-3.3423-.1129-5.0545-.1129-1.3312,0-3.0071.0786-5.0595.1129v-1.1l1.7807-.1113c.8032-.0388,1.5666-.29,1.5666-.7367a8.3,8.3,0,0,0-.8028-2.3431l-1.75-4.22H246.5417l-1.0647,2.458a20.2573,20.2573,0,0,0-1.3373,3.8139c0,.7719.6474.915,1.83,1.0274l1.4013.1113v1.1c-1.8215-.0343-3.2712-.1129-4.3767-.1129-1.4773,0-2.927.0786-4.3727.1129-1.9727-.0736-2.1344-.1129-3.8854-.1129-1.8608,0-3.6476.0393-5.6329.1129v-1.1l1.8316-.1113c.9065-.0388,1.3726-.1784,1.5958-.5452a6.3,6.3,0,0,0,.3447-2.7527V72.8c-.4556-.0383-1.4825-.0766-3.16-.0766h-8.9082c-1.6743,0-2.6968.0383-3.1563.0766V80.975a6.2344,6.2344,0,0,0,.3436,2.7527c.23.3668.6838.5064,1.5993.5452l1.83.1113v1.1c-1.9868-.0736-3.7726-.1129-5.521-.1129-1.8689,0-3.6541.0393-5.6339.1129v-1.1l1.8225-.1113c.9155-.0388,1.3756-.1784,1.6059-.5452a6.3776,6.3776,0,0,0,.3366-2.7527V64.51a6.3329,6.3329,0,0,0-.3366-2.7512c-.23-.3688-.69-.513-1.6059-.5537l-1.8225-.11V59.9953c1.98.0711,3.7651.11,5.6339.11,1.7484,0,3.5342-.0388,5.521-.11v1.0994l-1.83.11c-.9155.0408-1.369.1849-1.5993.5537A6.1909,6.1909,0,0,0,217.65,64.51v6.5228c.46.0393,1.482.0792,3.1563.0792h8.9082c1.6778,0,2.7047-.04,3.16-.0792V64.51a6.2557,6.2557,0,0,0-.3447-2.7512c-.2232-.3688-.6893-.513-1.5958-.5537l-1.8316-.11V59.9953c1.9853.0711,3.7721.11,5.6329.11,1.751,0,3.5493-.0388,5.5235-.11v1.0994l-1.83.11c-.9155.0408-1.3645.1849-1.6.5537a6.3067,6.3067,0,0,0-.3421,2.7512V80.975a6.3514,6.3514,0,0,0,.3421,2.7527c.2358.3668,1.6.5452,1.6.5452h1.5983a2.69,2.69,0,0,0,2.0614-1.7963l6.77-14.8535c1.1856-2.5652,2.4726-5.2786,3.4994-7.9211h1.228l9.2049,20.8316a26.6361,26.6361,0,0,0,1.2249,2.4887c.4087.7054.8289,1.1776,1.5207,1.2506h1.812c.9171-.0731,1.3635-.1784,1.6023-.5452a6.3773,6.3773,0,0,0,.34-2.7527V64.51a6.3324,6.3324,0,0,0-.34-2.7512c-.2388-.3688-.6852-.48-1.6023-.5537l-1.68-.11V59.9953c1.1826.0393,2.4055.11,3.6224.11,1.2184,0,2.43-.0706,3.6139-.11l10.05,20.384,9.97-20.384c1.2184.0393,2.3935.11,3.6118.11,1.2254,0,2.44-.0706,3.5424-.11v1.0994l-1.5944.11c-.913.0741-1.3735.1849-1.6063.5537a6.2843,6.2843,0,0,0-.3417,2.7512V80.975a6.3287,6.3287,0,0,0,.3417,2.7527c.2328.3668.6934.5064,1.6063.5452Zm-43.493-8.8779-4.7975-10.9252-4.8322,10.9252ZM393.0869,71.183c0,6.0088-3.5725,11.1877-8.178,13.0168a19.9253,19.9253,0,0,1-8.1427,1.2844c-1.5247-.0343-3.2067-.1129-4.9159-.1129-1.7172,0-3.382.0786-5.1729.1129v-.8455l1.1761-.5831A2.3135,2.3135,0,0,0,368.81,81.89V64.51a6.4321,6.4321,0,0,0-.3416-2.7512c-.2308-.3688-.6913-.48-1.6074-.5537l-1.5208-.11-2.0377.11c-.9089.0741-1.3705.1849-1.5841.5537a6.0361,6.0361,0,0,0-.35,2.7512v20.237c0,.4408.0715.9215.1089,1.3564l-3.42-.5824L340.1279,64.07h-.0806V80.975a6.2748,6.2748,0,0,0,.3466,2.7527c.2227.3668.6883.4721,1.6044.5452l1.6719.1113v1.1c-1.6719-.0343-3.0535-.1129-4.5742-.1129-1.3675,0-1.7354.0786-3.2571.1129-1.6719-.0343-2.6413-.1129-4.3515-.1129-1.3292,0-3.0071.0786-5.061.1129v-1.1l1.79-.1113c.8032-.0388,1.56-.29,1.56-.7367a8.2622,8.2622,0,0,0-.8042-2.3431l-1.7484-4.22H316.264l-1.0672,2.458a20.9035,20.9035,0,0,0-1.3263,3.8139c0,.7719.6511.915,1.8312,1.0274l1.4067.1113v1.1c-1.8331-.0343-3.2712-.1129-4.3858-.1129-1.4773,0-2.9275.0786-4.3767.1129v-1.1l1.4119-.1113a2.7088,2.7088,0,0,0,2.0588-1.7963l6.7711-14.8535c1.1781-2.5652,2.4741-5.2786,3.501-7.9211h1.22l9.205,20.8316c.3477.7316.7719,1.7252,1.2183,2.4887.4212.7054.8415,1.1776,1.5257,1.2506l.4787.0428.62-.0428c.922-.0731,1.3716-.1784,1.6023-.5452a6.2631,6.2631,0,0,0,.3457-2.7527V64.51a6.2192,6.2192,0,0,0-.3457-2.7512c-.2307-.3688-.68-.48-1.6023-.5537l-1.67-.11V59.9953c1.67.0393,3.1977.11,4.5672.11.6822,0,1.3625-.0706,2.0538-.11L359.5042,81.633h.1128V64.51a6.0144,6.0144,0,0,0-.3517-2.7512c-.22-.3688-.6772-.48-1.5913-.5537l-1.678-.11V59.9953c1.5278.0393,3.05.11,4.4141.11,1.5217,0,3.2439-.0706,4.93-.11,2.5547.0393,4.9905.11,7.5059.11,2.5053,0,4.9451-.0706,6.62-.11C387.264,59.8179,393.0869,64.07,393.0869,71.183Zm-66.5437,4.3234-4.7889-10.9252L316.91,75.5063Zm62.4774-3.301c0-9.0976-5.4067-10.7432-12.2544-10.7432a23.2833,23.2833,0,0,0-4.3454.2963V83.5765a23.2786,23.2786,0,0,0,4.3454.2973,14.54,14.54,0,0,0,6.1927-1.0683C387.1491,80.9432,389.0206,77.1581,389.0206,72.2053Zm-47.05,30.5156a6.0779,6.0779,0,0,1,.3467-2.7552c.2287-.3669.68-.5109,1.5871-.5513l1.8221-.11V98.2058c-1.9723.0715-3.756.11-5.5115.11-1.8633,0-3.6541-.0383-5.6284-.11v1.0984l1.819.11c.9171.04,1.3747.1844,1.6054.5513a6.3678,6.3678,0,0,1,.3406,2.7552v6.5208c-.4616.04-1.4855.0761-3.1664.0761H326.29c-1.6809,0-2.7048-.0358-3.1674-.0761V102.721a6.2136,6.2136,0,0,1,.3466-2.7552c.2267-.3669.6782-.5109,1.6-.5513l1.817-.11V98.2058c-1.9671.0715-3.7639.11-5.5155.11-1.8613,0-3.6431-.0383-5.6334-.11v1.0984l1.8311.11c.9211.04,1.3736.1844,1.6044.5513a6.421,6.421,0,0,1,.3366,2.7552v16.4584a6.4074,6.4074,0,0,1-.3366,2.7507c-.2307.3693-.6833.5135-1.6044.5492l-1.8311.1078v1.099c1.99-.0636,3.7721-.1024,5.6334-.1024,1.7515,0,3.5484.0388,5.5155.1024v-1.099l-1.817-.1078c-.9222-.0357-1.3736-.18-1.6-.5492a6.2,6.2,0,0,1-.3466-2.7507v-8.1811c.4625-.0322,1.4864-.0665,3.1674-.0665h8.8955c1.6809,0,2.7048.0343,3.1664.0665v8.1811a6.3543,6.3543,0,0,1-.3406,2.7507c-.2307.3693-.6883.5135-1.6054.5492l-1.819.1078v1.099c1.9742-.0636,3.7651-.1024,5.6284-.1024,1.7556,0,3.5393.0388,5.5115.1024v-1.099l-1.8221-.1078c-.907-.0357-1.3585-.18-1.5871-.5492a6.0649,6.0649,0,0,1-.3467-2.7507V102.721M360.9826,99.12c-6.62,0-9.63,4.473-9.63,10.4893,0,6.416,3.1231,13.163,10.6582,13.163,6.3579,0,9.4377-4.7642,9.4377-11.5158,0-7.26-3.3841-12.1365-10.4656-12.1365M347.284,110.966c0-7.5557,5.4812-13.3862,14.3082-13.3862,8.1448,0,13.93,4.4014,13.93,12.5361,0,7.8917-6.3962,14.1979-14.7235,14.1979C353.0656,124.3139,347.284,119.1793,347.284,110.966ZM394.3,104.2986a24.3962,24.3962,0,0,1,.5321-5.1788,18.4432,18.4432,0,0,0-6.89-1.54c-4.5833,0-9.7462,2.6066-9.7462,8.2929,0,3.81,2.3552,5.6063,8.3292,6.27,3.8829.4354,6.7,1.432,6.7,4.9108,0,3.6335-3.3891,5.6481-6.8094,5.6481-3.0092,0-6.0164-1.3932-6.2078-2.9312l-.3-2.464H378.681a32.7956,32.7956,0,0,1-.255,5.61,16.7,16.7,0,0,0,6.5011,1.3973c5.6677,0,11.5-3.0057,11.5-9.275,0-4.1788-3.3962-5.4667-8.7554-6.0139-4.7567-.5214-6.2794-2.0594-6.2794-4.55,0-3.6309,2.97-5.3557,5.6284-5.3557a8.7132,8.7132,0,0,1,4.147.88c1.4129.8445,1.564,1.2129,1.6678,2.2015l.2328,2.0971H394.3m11.4159-4.2582a15.4412,15.4412,0,0,1,3.892-.4415c3.7579,0,6.1634,1.6543,6.1634,5.4581a5.3843,5.3843,0,0,1-5.4882,5.47,8.2028,8.2028,0,0,1-2.5084-.3714l.38,1.3233a12.2958,12.2958,0,0,0,2.2826.2192c5.02,0,9.1374-3.297,9.1374-7.8843,0-4.1484-4.1923-5.6822-7.8838-5.6081-2.0517.04-4.2558.11-6.4688.11-2.1718,0-4.3445-.07-6.8488-.11v1.0984l1.7192.11c.94.0741,1.3585.251,1.6306.6259a5.9711,5.9711,0,0,1,.3809,2.6806v16.4584a6.2506,6.2506,0,0,1-.3457,2.7507c-.2287.3693-.6862.5135-1.6053.5492l-1.815.1078v1.099c1.9732-.0636,3.766-.1024,5.6263-.1024,1.7515,0,3.5373.0388,5.5175.1024v-1.099l-1.823-.1078c-.9161-.0357-1.3675-.18-1.6063-.5492a6.44,6.44,0,0,1-.3366-2.7507V100.04m23.1927,2.6806a6.327,6.327,0,0,1,.3426-2.7552c.2319-.3669.6834-.5109,1.6034-.5513l1.824-.11V98.2058c-1.9792.0715-3.77.11-5.5125.11-1.8713,0-3.6531-.0383-5.6374-.11v1.0984l1.8251.11c.9161.04,1.3675.1844,1.5993.5513a6.3313,6.3313,0,0,1,.3417,2.7552v16.4584a6.3178,6.3178,0,0,1-.3417,2.7507c-.2318.3693-.6832.5135-1.5993.5492l-1.8251.1078v1.099c1.9843-.0636,3.7661-.1024,5.6374-.1024,1.7424,0,3.5333.0388,5.5125.1024v-1.099l-1.824-.1078c-.92-.0357-1.3716-.18-1.6034-.5492a6.3136,6.3136,0,0,1-.3426-2.7507V102.721m15.5055,16.4584a6.2934,6.2934,0,0,1-.3366,2.7507c-.2388.3693-.6953.5135-1.6044.5492l-1.825.1078v1.099c1.9842-.0636,3.766-.1024,5.6354-.1024,1.7495,0,3.5323.0388,5.5145.1024v-1.099l-1.8241-.1078c-.912-.0357-1.3686-.18-1.6033-.5492a6.2885,6.2885,0,0,1-.3377-2.7507V103.6678A36.1742,36.1742,0,0,1,448.1844,100h5.8965c1.1377,0,1.45.331,1.5227,1.2129l.15,2.8959h1.1841c0-1.9833.0786-3.9983.2711-5.903-2.7391,0-5.4832.11-8.22.11h-5.5275c-2.74,0-5.4782-.11-8.2154-.11.1895,1.9047.2651,3.92.2651,5.903h1.1841l.15-2.8959c.0756-.8818.3759-1.2129,1.5208-1.2129h5.9014c.1068,1.1031.1472,2.272.1472,3.6678v15.5116m59.0792-1.9078c-.2307,2.0156-.4938,4.4775-.8032,6.3121-1.6729.0388-4.673.1431-7.4907.1024-3.4274-.0343-5.9407-.1024-8.301-.1024-1.1428,0-3.2278.054-4.3988.0907v.0117c-.0928,0-.1926-.0015-.2833-.0056-.0514.004-.1451.0056-.1925.0056l-.006-.01c-1.5128-.0337-3.0273-.0928-4.5663-.0928-1.3443,0-3.0141.0681-5.0761.1024v-1.099l1.7979-.1078c.7941-.0357,1.5549-.2912,1.5549-.73a8.2307,8.2307,0,0,0-.8032-2.3532l-1.7465-4.2089H462.2246l-1.0692,2.4535a20.666,20.666,0,0,0-1.3413,3.8184c0,.7639.649.9125,1.836,1.02l1.4.1078v1.099c-1.82-.0343-3.2682-.1024-4.3777-.1024-1.4773,0-2.9185.0681-4.3657.1024v-1.099l1.4058-.1078a2.6965,2.6965,0,0,0,2.0539-1.7923l6.77-14.8539c1.1821-2.5668,2.4781-5.2852,3.5031-7.918h1.2244l9.207,20.8285c.3436.7261.7649,1.7173,1.2164,2.4892.4152.6974.8394,1.1705,1.5207,1.2466l1.292.1078a8.8153,8.8153,0,0,0,2.342-.326,2.3175,2.3175,0,0,0,.9533-2.1616V102.721a6.3368,6.3368,0,0,0-.3406-2.7552c-.23-.3669-.6862-.5109-1.5993-.5513l-1.8311-.11V98.2058c1.9833.0715,3.7711.11,5.6435.11,1.7414,0,3.5322-.0383,5.5185-.11v1.0984l-1.8331.11c-.9151.04-1.3716.1844-1.5923.5513a6.1905,6.1905,0,0,0-.3517,2.7552v19.137a13.7026,13.7026,0,0,0,3.1915.2887c3.1292,0,7.7749-.1064,8.4169-.6878a6.5411,6.5411,0,0,0,.8052-2.3521l.45-1.8352Zm-31-3.5549-4.796-10.9276-4.8343,10.9276Z"/><path class="c" d="M19.7082,15.0889h8.58c4.0313,0,8.418.8457,8.418,5.8516a5.18,5.18,0,0,1-3.9648,5.07v.0645a5.5125,5.5125,0,0,1,5.0371,5.623c0,4.8105-4.5488,6.4023-8.6445,6.4023H19.7082Zm5.07,9.1992H28.45c1.5605,0,3.1855-.65,3.1855-2.5039,0-1.916-1.82-2.4043-3.4121-2.4043H24.7785Zm0,9.5215h4.5508c1.5918,0,3.3789-.6816,3.3789-2.6973,0-2.1777-2.4375-2.5352-4.0937-2.5352H24.7785Zm21.49-18.7207H55.175c4.7129,0,8.6777,1.625,8.6777,6.9883,0,3.2188-1.7227,5.7207-4.9727,6.3047l5.85,9.7188H58.6516l-4.8105-9.1973h-2.502v9.1973h-5.07Zm5.07,9.5234h2.99c1.8535,0,4.2578-.0645,4.2578-2.5664,0-2.3086-2.08-2.666-3.9336-2.666H51.3391ZM71.89,15.0889h5.07V38.1006H71.89Zm35.3926,21.3867A20.6289,20.6289,0,0,1,97.63,38.6865c-7.1836,0-12.416-4.7129-12.416-12.0918,0-7.377,5.2324-12.09,12.416-12.09,3.6387,0,6.8574.8125,9.1641,2.957l-3.5742,3.9a7.0814,7.0814,0,0,0-5.59-2.1777c-4.3242,0-7.15,3.1211-7.15,7.41,0,4.291,2.8262,7.41,7.15,7.41a9.9369,9.9369,0,0,0,4.7773-1.1367V29.13H98.2785V24.45h9.0039Zm10.2013-21.3867h5.07v8.582h9.8477v-8.582h5.07V38.1006h-5.07V28.1553H122.554v9.9453h-5.07Zm35.84,0h4.1934l10.01,23.0117h-5.7187l-1.9824-4.875H150.886l-1.916,4.875h-5.5918Zm1.9512,6.6953-2.7949,7.15h5.623Zm18.1581-6.6953h7.67l5.2988,15.0156h.0645l5.33-15.0156h7.6387V38.1006h-5.07V20.4522h-.0664l-6.0449,17.6484h-3.8672l-5.8184-17.6484h-.0645V38.1006h-5.07Zm50.0488,0h5.07v8.582H238.4v-8.582h5.07V38.1006H238.4V28.1553h-9.8477v9.9453h-5.07Zm31.6135,0h15.6328v4.6816H260.1654V24.06h9.9785v4.6817h-9.9785v4.68h11.1484v4.68H255.0951Zm32.7266,0h4.1934l10.01,23.0117H296.306l-1.9824-4.875h-8.9395l-1.916,4.875h-5.5918Zm1.9512,6.6953-2.7949,7.15h5.623Zm18.98-6.6953h5.07v18.332h9.3926v4.68H308.7533Zm21.6932,4.4863H323.88V15.0889h18.2012v4.4863h-6.5645V38.1006h-5.07Zm18.4511-4.4863h5.07v8.582h9.8477v-8.582h5.07V38.1006h-5.07V28.1553h-9.8477v9.9453h-5.07Z"/></svg>